<?xml version="1.0" encoding="utf-8"?>
<!-- Generator: Adobe Illustrator 22.1.0, SVG Export Plug-In . SVG Version: 6.00 Build 0)  -->
<svg version="1.1" id="Layer_1" xmlns="http://www.w3.org/2000/svg" xmlns:xlink="http://www.w3.org/1999/xlink" x="0px" y="0px"
	 viewBox="0 0 344.1 133.4" style="enable-background:new 0 0 344.1 133.4;" xml:space="preserve">
<style type="text/css">
	.st0{fill:#444444;}
	.st1{fill:#316199;}
	.st2{fill:#FFCB48;}
	.st3{fill:#049B9B;}
	.st4{fill:#F9BB21;}
	.st5{fill:#FF7F29;}
	.st6{fill:#6B7A8F;}
	.st7{fill:#876218;}
	.st8{fill:#D8A430;}
	.st9{fill:#E0C486;}
	.st10{fill:none;stroke:#444444;stroke-width:6.5;stroke-miterlimit:10;}
	.st11{fill:none;stroke:#CE9619;stroke-width:6.5;stroke-miterlimit:10;}
	.st12{fill:none;stroke:#F9BB21;stroke-width:6.5;stroke-miterlimit:10;}
	.st13{fill:#FFDC48;}
	.st14{fill:#FF912E;}
	.st15{fill:#4184F3;}
	.st16{fill:#0054C6;}
	.st17{fill:none;stroke:#0070EA;stroke-width:4.3;stroke-miterlimit:10;}
	.st18{fill:#2CB9FF;}
</style>
<g>
	<path class="st16" d="M145,70.1c0-6.1-3.2-8.2-8.1-8.2c-4.6,0-8.1,2.6-10.1,5.2v29.8h-11.6V52.6h11.6v5.8c2.8-3.4,8.2-6.9,15.5-6.9
		c9.7,0,14.4,5.5,14.4,14.1v31.2H145V70.1z"/>
	<path class="st16" d="M169.4,82.3c3.2,3,9.8,6,15.3,6c5,0,7.4-1.7,7.4-4.5c0-3.1-3.8-4.2-8.9-5.2c-7.6-1.5-17.4-3.3-17.4-13.8
		c0-7.4,6.5-13.9,18.1-13.9c7.5,0,13.5,2.6,17.8,6l-4.6,8c-2.7-2.8-7.7-5.1-13.1-5.1c-4.2,0-7,1.6-7,4.1c0,2.7,3.5,3.8,8.4,4.8
		c7.6,1.5,17.8,3.5,17.8,14.5c0,8.1-6.9,14.2-19.1,14.2c-7.7,0-15.1-2.6-19.8-6.9L169.4,82.3z"/>
	<path class="st16" d="M264.4,36h11.6v61.1h-11.6V36z"/>
	<path class="st16" d="M307.7,50.9c13.2,0,22.2,9.9,22.2,24.4v2.6h-32.9c0.7,5.6,5.2,10.3,12.7,10.3c4.1,0,9-1.6,11.8-4.4l5.1,7.5
		c-4.5,4.1-11.4,6.1-18.2,6.1c-13.5,0-23.6-9.1-23.6-23.3C284.8,61.3,294.2,50.9,307.7,50.9z M296.8,70h21.8
		c-0.3-4.2-3.2-9.8-10.9-9.8C300.4,60.2,297.3,65.6,296.8,70z"/>
	<g>
		<path class="st16" d="M54.9,88c-4.1,5.4-10.6,8.8-17.9,8.8c-12.5,0-22.7-10.2-22.7-22.7c0-12.5,10.2-22.7,22.7-22.7
			c7.3,0,13.8,3.5,17.9,8.8l-8.5,6.5c-2.2-2.8-5.6-4.6-9.4-4.6c-6.6,0-11.9,5.4-11.9,12c0,6.6,5.4,11.9,11.9,11.9
			c3.8,0,7.2-1.8,9.4-4.6L54.9,88z"/>
	</g>
	<g>
		<path class="st18" d="M83.3,96.8c-12.5,0-22.7-10.2-22.7-22.7c0-12.5,10.2-22.7,22.7-22.7s22.7,10.2,22.7,22.7
			C105.9,86.6,95.8,96.8,83.3,96.8z M83.3,62.2c-6.6,0-11.9,5.4-11.9,12c0,6.6,5.4,11.9,11.9,11.9s11.9-5.4,11.9-11.9
			C95.2,67.5,89.8,62.2,83.3,62.2z"/>
	</g>
	<g>
		<path class="st16" d="M101.2,88c-4.1,5.4-10.6,8.8-17.9,8.8c-12.5,0-22.7-10.2-22.7-22.7c0-12.5,10.2-22.7,22.7-22.7
			c7.3,0,13.8,3.5,17.9,8.8l-8.5,6.5c-2.2-2.8-5.6-4.6-9.4-4.6c-6.6,0-11.9,5.4-11.9,12c0,6.6,5.4,11.9,11.9,11.9
			c3.8,0,7.2-1.8,9.4-4.6L101.2,88z"/>
	</g>
	<g>
		<path class="st16" d="M233.9,96.8c-12.5,0-22.7-10.2-22.7-22.7c0-12.5,10.2-22.7,22.7-22.7c12.5,0,22.7,10.2,22.7,22.7
			C256.5,86.6,246.4,96.8,233.9,96.8z M233.9,62.2c-6.6,0-11.9,5.4-11.9,12c0,6.6,5.4,11.9,11.9,11.9c6.6,0,11.9-5.4,11.9-11.9
			C245.8,67.5,240.4,62.2,233.9,62.2z"/>
	</g>
</g>
</svg>
